<?xml version="1.0" encoding="utf-8"?>
<!-- Generator: Adobe Illustrator 27.0.1, SVG Export Plug-In . SVG Version: 6.00 Build 0)  -->
<svg version="1.1" id="TTEC_Digital" xmlns="http://www.w3.org/2000/svg" xmlns:xlink="http://www.w3.org/1999/xlink" x="0px"
	 y="0px" viewBox="0 0 479.7 359.9" style="enable-background:new 0 0 479.7 359.9;" xml:space="preserve">
<style type="text/css">
	.st0{fill:#2B3A42;}
</style>
<g>
	<path class="st0" d="M193.8,201.5c-10.6,0.1-22.8-4.3-22.8-19.2v-42.3c0-0.3,0.2-0.5,0.5-0.5h11.8c1.1,0,2-0.9,2-2v-10.1
		c0-1.1-0.9-2-2-2h-11.8c-0.3,0-0.5-0.2-0.5-0.5v-18.9c0-1.1-0.9-2-2-2h-10.6c-1.1,0-2,0.9-2,2v19.4v14.1v42.8
		c0,22.1,17.4,34.5,37.6,32.9c1-0.1,1.8-1,1.8-2v-9.7C195.8,202.4,194.9,201.5,193.8,201.5z"/>
	<path class="st0" d="M243.1,125c-23.9,0-43.3,20.4-43.3,45.3c0,25.3,19.4,45,44.2,45c18.9,0,33.1-9.3,39.7-26
		c0.5-1.3-0.4-2.8-1.9-2.8l-10.3,0c-1.1,0-2.2,0.7-2.7,1.7c-4.8,9-13.2,14.2-24.8,14.2c-14.1,0-27.6-10.3-29.7-27.9
		c0-0.3,0.2-0.6,0.5-0.6l68.8,0c1.7,0,3.1-1.5,3-3.2C285.2,142.1,264.5,125,243.1,125z M270.2,161.3l-54.6,0c-0.3,0-0.6-0.3-0.5-0.6
		c3.9-14.3,16.2-22.8,27.9-22.8c12.4,0,23.9,9.1,27.6,22.8C270.8,160.9,270.5,161.3,270.2,161.3z"/>
	<path class="st0" d="M376,186.5l-10.5,0c-1.1,0-2.1,0.6-2.7,1.6c-4.9,8.5-13.4,14.1-24.1,14.1c-15.9,0-28.9-14.2-28.9-32
		c0-17.7,13.1-32.3,28.9-32.3c10.6,0,19.1,5.7,24.1,14.2c0.6,0.9,1.5,1.6,2.6,1.6l10.5,0c1.4,0,2.4-1.5,1.9-2.8
		c-6.5-15.8-20.9-26-39.1-26c-23.8,0-43.2,20.4-43.2,45.3s19.4,45,43.2,45c18.2,0,32.8-10.2,39.1-26
		C378.4,188,377.5,186.5,376,186.5z"/>
	<path class="st0" d="M147.4,201.5c-10.4,0.1-22.8-4.3-22.8-19.2v-56.8c0-0.3,0.2-0.5,0.5-0.5h11.8c1.1,0,2-0.9,2-2v-11
		c0-1.1-0.9-2-2-2h-11.8c-0.3,0-0.5-0.2-0.5-0.5V92.8c0-1.1-0.9-2-2-2H112c-1.1,0-2,0.9-2,2v11.1V118v64.2
		c0,22.1,17.5,34.4,37.6,32.9c1-0.1,1.8-1,1.8-2v-9.7C149.4,202.4,148.5,201.5,147.4,201.5z"/>
	<path class="st0" d="M88.8,125h10.9c1.1,0,2-0.9,2-2v-11c0-1.1-0.9-2-2-2H88.8c-1.1,0-2,0.9-2,2v11C86.8,124.1,87.7,125,88.8,125z"
		/>
	<path class="st0" d="M147.2,230.1c-6.3,0.2-21.9-0.1-32.7-6.8c-9-5.6-12.5-15.1-13.5-18.8c-0.2-0.9-1-1.5-1.9-1.5l-10.3,0
		c-1.2,0-2.2,1.1-2,2.3c0.5,3.6,2.2,10.9,7.9,18.7c2.8,3.8,6.4,7.1,10.9,10.3c13.2,9.5,35.5,9.3,41.8,8.9c1.1-0.1,1.9-0.9,1.9-2
		l0-9.2C149.3,230.9,148.3,230,147.2,230.1z"/>
	<path class="st0" d="M387.5,133.3c0.8-0.3,1.3-0.8,1.3-1.8c0-1.4-0.9-2-2.6-2h-2.3v6.7h1.3v-2.7h1.2l1.5,2.7h1.4L387.5,133.3
		L387.5,133.3z M386.3,132.6h-1.1v-2.1h1c1,0,1.3,0.3,1.3,1C387.5,132.2,387.2,132.6,386.3,132.6z"/>
	<path class="st0" d="M386.1,126.1c-3.9,0-6.8,3-6.8,6.8c0,3.8,2.9,6.8,6.8,6.8c3.8,0,6.8-3,6.8-6.8
		C392.9,129.1,390,126.1,386.1,126.1z M386.1,138.7c-3.3,0-5.6-2.6-5.6-5.8c0-3.2,2.3-5.8,5.6-5.8c3.3,0,5.6,2.6,5.6,5.8
		C391.7,136.2,389.4,138.7,386.1,138.7z"/>
</g>
<g>
	<path class="st0" d="M211.4,253.3c0,8.8-6.5,15.7-15.1,15.7h-12.5v-31.4h12.5C204.9,237.6,211.4,244.4,211.4,253.3z M205.5,253.3
		c0-5.8-3.8-9.8-9.2-9.8H190V263h6.3C201.7,263,205.5,259,205.5,253.3z"/>
	<path class="st0" d="M227,237.6V269h-6.2v-31.4H227z"/>
	<path class="st0" d="M268.7,254.5c0,9.1-6.4,15.1-15.4,15.1c-9.8,0-16.8-7.3-16.8-16.3c0-9.1,7.1-16.4,16.5-16.4c6,0,11,3,13.7,7.3
		l-5.3,3.1c-1.4-2.5-4.6-4.4-8.4-4.4c-6,0-10.3,4.4-10.3,10.4c0,5.8,4.2,10.2,10.7,10.2c4.9,0,8.1-2.4,9.2-6h-9.5v-5.5h15.7V254.5z"
		/>
	<path class="st0" d="M284.3,237.6V269h-6.2v-31.4H284.3z"/>
	<path class="st0" d="M316.8,243.5h-8.5V269h-6.2v-25.5h-8.4v-5.9h23.1V243.5z"/>
	<path class="st0" d="M341.4,263.3h-12.5L327,269h-6.7l11-31.4h7.7l11,31.4h-6.7L341.4,263.3z M339.4,257.5l-4.3-12.8l-4.3,12.8
		H339.4z"/>
	<path class="st0" d="M377.1,263v5.9h-18.2v-31.4h6.2V263H377.1z"/>
</g>
</svg>
